<svg height="50px" viewBox="0 -31 512 512" width="50px" xmlns="http://www.w3.org/2000/svg"><path d="m61 345h391v90h-391zm0 0" fill="#ffd400"/><path d="m256 345h196v90h-196zm0 0" fill="#ff9f00"/><path d="m481.398438 108.601562-29.398438 118.199219v118.199219h-391v-118.199219l-29.398438-118.199219 46.199219-23.101562 84.597657 84.597656 59.101562-111h69l59.101562 111 85.597657-84.597656zm0 0" fill="#ffd400"/><path d="m481.398438 108.601562-29.398438 118.199219v118.199219h-196v-285.902344h34.5l59.101562 111 85.597657-84.597656zm0 0" fill="#ff9f00"/><path d="m46 120c-24.8125 0-46-20.1875-46-45s21.1875-45 46-45 45 20.1875 45 45-20.1875 45-45 45zm0 0" fill="#ffe470"/><path d="m467 120c-24.8125 0-45-20.1875-45-45s20.1875-45 45-45 45 20.1875 45 45-20.1875 45-45 45zm0 0" fill="#fdbf00"/><path d="m256 0c-24.902344 0-45 20.097656-45 45 0 24.898438 20.097656 45 45 45s45-20.101562 45-45c0-24.902344-20.097656-45-45-45zm0 0" fill="#ffe470"/><path d="m76 195-45 75 45 75 45-75zm0 0" fill="#cb75f6"/><path d="m301 270-45 75-45-75 45-75zm0 0" fill="#ff6c6c"/><path d="m301 270-45 75v-150zm0 0" fill="#ff4949"/><path d="m437 195-45 75 45 75 45-75zm0 0" fill="#b760ea"/><path d="m256 90v-90c24.902344 0 45 20.097656 45 45 0 24.898438-20.097656 45-45 45zm0 0" fill="#fdbf00"/><path d="m31 330h451v30h-451zm0 0" fill="#ffe470"/><path d="m256 330h226v30h-226zm0 0" fill="#ffd400"/><path d="m31 420h451v30h-451zm0 0" fill="#ffe470"/><path d="m256 420h226v30h-226zm0 0" fill="#ffd400"/></svg>
